<?xml version="1.0" standalone="yes"?>
<svg xmlns="http://www.w3.org/2000/svg" width="106" height="50">
<path style="fill:#fffefe; stroke:none;" d="M0 0L0 50L106 50L106 0L0 0z"/>
<path style="fill:#4a3f85; stroke:none;" d="M9 5L9 8C10.1952 6.77723 10.3164 6.58 11 5L9 5z"/>
<path style="fill:#ad617b; stroke:none;" d="M11 5C11.9802 6.78334 11.9076 6.59433 14 7C12.8606 5.98455 12.3884 5.69134 11 5z"/>
<path style="fill:#4a3f85; stroke:none;" d="M12 5C13.2376 6.65012 14.6665 6.33338 12 7C14.1397 8.11775 14.5268 7.25079 15 5L12 5M16 5L16 8C18.0059 6.87338 18.0059 6.12661 16 5M19 5L19 8C19.6961 6.44631 19.6961 6.5537 19 5z"/>
<path style="fill:#ad617b; stroke:none;" d="M20 5C20.4057 7.09241 20.2167 7.01976 22 8C21.3087 6.61155 21.0155 6.13937 20 5z"/>
<path style="fill:#c7a0bb; stroke:none;" d="M21 5L22 6L21 5z"/>
<path style="fill:#4a3f85; stroke:none;" d="M22 5L22 8C23.1952 6.77721 23.3164 6.58001 24 5L22 5z"/>
<path style="fill:#c7a0bb; stroke:none;" d="M24 5L25 6L24 5z"/>
<path style="fill:#4a3f85; stroke:none;" d="M25 8C26.1954 7.40229 25.9774 7.5339 27 6L27 8C28.2997 7.35015 28 7.85321 28 6L29 8C30.0154 6.86065 30.3087 6.38843 31 5C27.9378 5.1897 26.1838 5.03249 25 8z"/>
<path style="fill:#c7a0bb; stroke:none;" d="M27 5L28 6L27 5M31 5C31.513 7.47511 31.6038 7.5746 34 7C32.8607 5.98457 32.3884 5.69133 31 5z"/>
<path style="fill:#4a3f85; stroke:none;" d="M32 5C33.2483 5.6848 33.5484 5.74879 35 6L33 7C35.1397 8.11776 35.5268 7.25079 36 5L32 5z"/>
<path style="fill:#c7a0bb; stroke:none;" d="M36 5C36.4825 7.364 36.636 7.51755 39 8C38.0275 6.73012 37.2699 5.97251 36 5z"/>
<path style="fill:#ad617b; stroke:none;" d="M37 5L37 7L39 7C38.4549 5.36484 38.6352 5.54506 37 5z"/>
<path style="fill:#4a3f85; stroke:none;" d="M39 5L39 8C39.6961 6.4463 39.6961 6.55369 39 5z"/>
<path style="fill:#ad617b; stroke:none;" d="M41 8L46 6C43.3872 4.502 41.6455 4.9876 41 8z"/>
<path style="fill:#4a3f85; stroke:none;" d="M46 5C46.0313 6.83181 45.9205 6.55871 47 8C46.7488 6.54841 46.6848 6.24836 46 5z"/>
<path style="fill:#c7a0bb; stroke:none;" d="M48 5L49 6L48 5z"/>
<path style="fill:#4a3f85; stroke:none;" d="M49 5C48.0143 6.47852 48 6.20319 48 8C49.2892 6.55738 49.4009 6.76626 49 5M51 5L51 8C52.8968 7.36774 52.2196 7.21959 53 8C53.6848 6.75166 53.7488 6.45156 54 5L51 5M55 5L55 8L57 8L57 5L55 5z"/>
<path style="fill:#c7a0bb; stroke:none;" d="M57.6667 5.33333C57.2222 5.77778 58.2778 5.72223 58.3333 5.66667C58.7778 5.22222 57.7222 5.27777 57.6667 5.33333z"/>
<path style="fill:#4a3f85; stroke:none;" d="M59 5C58.0143 6.4785 58 6.2032 58 8C59.0817 6.61566 59.1906 6.66175 59 5z"/>
<path style="fill:#c7a0bb; stroke:none;" d="M59 8L64 7C61.5946 5.60691 60.9828 6.07277 59 8z"/>
<path style="fill:#ad617b; stroke:none;" d="M63.6667 5.33333C63.2222 5.77781 64.2778 5.72221 64.3333 5.66667C64.7778 5.22225 63.7222 5.27776 63.6667 5.33333z"/>
<path style="fill:#4a3f85; stroke:none;" d="M66 5L66 8C66.6961 6.44631 66.6961 6.5537 66 5z"/>
<path style="fill:#ad617b; stroke:none;" d="M67 5C67.4057 7.09242 67.2167 7.01975 69 8C68.3087 6.61158 68.0154 6.13935 67 5z"/>
<path style="fill:#c7a0bb; stroke:none;" d="M68.3333 5.66667C68.2778 5.72225 68.2222 6.77777 68.6667 6.33333C68.7222 6.2778 68.7778 5.22222 68.3333 5.66667M70 5L70 8L72 7C71.4549 5.36484 71.6352 5.54505 70 5z"/>
<path style="fill:#4a3f85; stroke:none;" d="M71.6667 5.33333C71.2222 5.77777 72.2778 5.72224 72.3333 5.66667C72.7778 5.22221 71.7222 5.27779 71.6667 5.33333z"/>
<path style="fill:#c7a0bb; stroke:none;" d="M73.6667 5.33333C73.2222 5.77776 74.2778 5.72224 74.3333 5.66667C74.7778 5.2222 73.7222 5.2778 73.6667 5.33333z"/>
<path style="fill:#4a3f85; stroke:none;" d="M75 5L75 8C75.6961 6.4463 75.6961 6.5537 75 5z"/>
<path style="fill:#ad617b; stroke:none;" d="M76 5L76 8C76.6961 6.44631 76.6961 6.55369 76 5z"/>
<path style="fill:#c7a0bb; stroke:none;" d="M77 5L77 8L80 8C79.3677 6.10321 79.2196 6.7804 80 6C78.7516 5.3152 78.4516 5.25121 77 5z"/>
<path style="fill:#ad617b; stroke:none;" d="M80 5L79 6L80 8C82.3443 7.76797 83.6576 7.92706 85 6C83.1272 5.83357 81.8042 5.55455 80 5z"/>
<path style="fill:#c7a0bb; stroke:none;" d="M81 5L82 6L81 5z"/>
<path style="fill:#4a3f85; stroke:none;" d="M82 5L87 8C86.3456 4.94608 84.9934 5.06424 82 5z"/>
<path style="fill:#c7a0bb; stroke:none;" d="M87 5L88 6L87 5z"/>
<path style="fill:#4a3f85; stroke:none;" d="M88 5L88 8C88.6961 6.44631 88.6961 6.5537 88 5z"/>
<path style="fill:#ad617b; stroke:none;" d="M90 5C90.9015 6.92251 91.0762 6.99883 93 8C92.5176 5.636 92.364 5.48245 90 5z"/>
<path style="fill:#c7a0bb; stroke:none;" d="M93 5L93 8C93.6961 6.44632 93.6961 6.55369 93 5z"/>
<path style="fill:#4a3f85; stroke:none;" d="M94 5L94 8L96 8L96 5L94 5z"/>
<path style="fill:#c7a0bb; stroke:none;" d="M96 5L97 6L96 5z"/>
<path style="fill:#fffefe; stroke:none;" d="M21 6L22 7L21 6M24 6L25 7L24 6M26 6L27 7L26 6M34 6L35 7L34 6M56.6667 6.33333C56.2222 6.77778 57.2778 6.72223 57.3333 6.66667C57.7778 6.22221 56.7222 6.27779 56.6667 6.33333M59 6L60 7L59 6z"/>
<path style="fill:#4a3f85; stroke:none;" d="M64 6L65 7L64 6z"/>
<path style="fill:#fffefe; stroke:none;" d="M77 6L78 7L77 6M82.6667 6.33333C82.2222 6.77776 83.2778 6.72224 83.3333 6.66667C83.7778 6.2222 82.7222 6.27779 82.6667 6.33333M87 6L88 7L87 6z"/>
<path style="fill:#ad617b; stroke:none;" d="M24 7L25 8L24 7z"/>
<path style="fill:#c7a0bb; stroke:none;" d="M26 7L27 8L26 7z"/>
<path style="fill:#4a3f85; stroke:none;" d="M44 7L45 8L44 7z"/>
<path style="fill:#c7a0bb; stroke:none;" d="M47 7L48 8L47 7z"/>
<path style="fill:#ad617b; stroke:none;" d="M49.6667 7.33333C49.2222 7.77778 50.2778 7.72223 50.3333 7.66667C50.7778 7.22222 49.7222 7.27778 49.6667 7.33333z"/>
<path style="fill:#c7a0bb; stroke:none;" d="M57 7L58 8L57 7z"/>
<path style="fill:#4a3f85; stroke:none;" d="M60 7L61 8L60 7z"/>
<path style="fill:#ad617b; stroke:none;" d="M63.6667 7.33333C63.2222 7.77781 64.2778 7.72221 64.3333 7.66667C64.7778 7.22224 63.7222 7.27777 63.6667 7.33333z"/>
<path style="fill:#4a3f85; stroke:none;" d="M71.6667 7.33333C71.2222 7.77777 72.2778 7.72224 72.3333 7.66667C72.7778 7.22221 71.7222 7.27778 71.6667 7.33333z"/>
<path style="fill:#c7a0bb; stroke:none;" d="M81 7L82 8L81 7M85 7L86 8L85 7M87 7L88 8L87 7M90.6667 7.33333C90.2222 7.77777 91.2778 7.72224 91.3333 7.66667C91.7778 7.22219 90.7222 7.2778 90.6667 7.33333M96 7L97 8L96 7z"/>
<path style="fill:#4a3f85; stroke:none;" d="M9 9L9 45L21 45L21 31L36 31L36 25L21 25L21 18L36 18L36 9L9 9z"/>
<path style="fill:#c7a0bb; stroke:none;" d="M36 9L36 18C37.2561 15.0059 37.2561 11.9941 36 9M38 9L38 22C39.5909 18.2087 39.5909 12.7913 38 9z"/>
<path style="fill:#ad617b; stroke:none;" d="M39 9L39 19C47.5991 18.3204 56.3533 15.6238 65 17L65 9L39 9M68 9L68 15C68.7789 13.231 68.9124 11.9641 69 10L90 10C83.7977 7.39739 74.7023 9 68 9z"/>
<path style="fill:#dc2229; stroke:none;" d="M69 10C68.6018 15.0451 68.0006 19.9177 68 25L62 25L62 27L90 27C83.4109 28.9476 75.8389 27.989 69 28C63.2901 28.0092 57.7095 28.9842 52 29C56.748 31.0109 62.862 30.9858 68 31L68 45L97 45L97 38L79 38L79 31L95 31L95 24L79 24L79 18L97 18L97 9L69 10M60 16C61.506 16.683 62.3148 16.8259 64 17C62.494 16.317 61.6852 16.1741 60 16z"/>
<path style="fill:#4a3f85; stroke:none;" d="M39 19C39.8964 21.9096 41.7413 24.2262 43 27L62 27L62 25L50 25L50 18L65 18C57.2616 14.7528 46.9882 17.9852 39 19z"/>
<path style="fill:#ad617b; stroke:none;" d="M79 18L79 24C79.9511 21.7147 79.9511 20.2853 79 18z"/>
<path style="fill:#c7a0bb; stroke:none;" d="M21 24C25.4714 25.8763 31.1834 25 36 25L36 31L21 31C25.7238 32.9822 31.9098 32 37 32L37 24L21 24M42 24L43 25L42 24M44 27C48.4687 28.8752 54.1913 28 59 28L89 28C84.5313 26.1248 78.8087 27 74 27L44 27z"/>
<path style="fill:#fffefe; stroke:none;" d="M89 27L90 28L89 27z"/>
<path style="fill:#4a3f85; stroke:none;" d="M43 28C40.1442 34.2993 39 37.9159 39 45L50 45L50 31L60 31C57.3873 29.9023 54.8355 30.0072 52 30C55.0408 29.1004 57.8309 29.0081 61 29C55.7776 26.8086 48.6322 28 43 28z"/>
<path style="fill:#c7a0bb; stroke:none;" d="M42 30L43 31L42 30M50 31C55.2224 33.1914 62.3678 32 68 32C62.7776 29.8086 55.6322 31 50 31z"/>
<path style="fill:#ad617b; stroke:none;" d="M79 31L79 38C80.0595 35.4657 80.0595 33.5343 79 31z"/>
<path style="fill:#c7a0bb; stroke:none;" d="M38 33L38 45C39.5124 41.3957 39.5124 36.6043 38 33M9 45C12.6975 46.5515 17.0168 46 21 46C17.3025 44.4485 12.9832 45 9 45M39 45C42.4324 46.4403 46.2998 46 50 46C46.5676 44.5597 42.7002 45 39 45M68 45C75.8884 48.3101 88.4492 46 97 46C89.1116 42.6899 76.5508 45 68 45z"/>
</svg>
