<?xml version="1.0" standalone="yes"?>
<svg xmlns="http://www.w3.org/2000/svg" width="226" height="223">
<path style="fill:#493d67; stroke:none;" d="M0 0L0 223L226 223L226 0L0 0z"/>
<path style="fill:#e5e1eb; stroke:none;" d="M104 8.42516C86.4174 10.8185 69.8473 16.1407 55 26.0895C2.41438 61.3258 -4.67711 139.956 39.0895 184.961C62.9832 209.53 97.5252 219.536 131 214.7C143.71 212.863 156.013 207.595 167 201.139C177.429 195.011 186.961 186.499 194.424 176.996C228.313 133.838 222.862 69.1954 180.961 33.0841C169.893 23.5459 156.869 16.8264 143 12.4985C131.201 8.81644 116.312 6.74922 104 8.42516z"/>
<path style="fill:#493d67; stroke:none;" d="M103 10.4244C86.8407 12.5721 71.7358 16.904 58 26.0039C46.5589 33.5834 36.0443 43.4226 28.5903 55C17.698 71.9177 11.0787 91.7193 11.0787 112C11.0787 156.63 41.1764 197.516 84 210.279C98.2723 214.533 114.212 215.417 129 213.445C141.697 211.752 153.88 206.881 165 200.691C174.606 195.344 182.817 188.098 190.084 179.91C227.6 137.64 222.17 69.5565 178.996 33.2855C167.402 23.5454 153.608 16.7374 139 12.8843C127.676 9.89734 114.643 8.87688 103 10.4244z"/>
<path style="fill:#e5e1eb; stroke:none;" d="M101 13.4282C85.9799 15.5791 71.7304 20.2276 59 28.6736C47.6973 36.1724 37.7563 45.5097 30.436 57C-3.70423 110.588 19.6524 186.869 82 206.806C97.0312 211.612 112.425 212.811 128 210.711C141.347 208.913 154.583 204.019 166 196.936C176.985 190.12 186.355 181.247 193.996 170.83C227.831 124.708 213.634 56.2355 165 26.615C155.667 20.9307 144.764 16.6728 134 14.7508C123.341 12.8474 111.807 11.8808 101 13.4282z"/>
<path style="fill:#493d67; stroke:none;" d="M102 14.4282C86.5585 16.6394 72.0202 21.6706 59 30.3549C48.5335 37.3359 39.363 46.6698 32.2052 57C5.68013 95.2812 11.8011 150.586 45.0394 182.91C66.0682 203.361 96.9134 213.49 126 209.711C139.761 207.922 153.174 202.975 165 195.796C225.156 159.274 226.031 67.7175 167 29.6921C157.374 23.4913 147.184 19.0796 136 16.5764C124.987 14.1113 113.268 12.8147 102 14.4282z"/>
<path style="fill:#e5e1eb; stroke:none;" d="M86 47C83.2358 49.0465 81.5882 50.9483 80 54C83.3103 53.9982 87.8466 53.1568 90.8156 54.8889C98.3318 59.2737 103.798 74.0114 106 82C104.812 80.5243 103.658 78.6301 102.265 77.3333C95.9212 71.4249 88.1182 84.9559 98.99 85.9221C100.188 86.0286 101.569 85.8646 102.69 85.4213C104.468 84.7183 105.664 83.2935 107 82C109.261 91.7747 112 99.8125 112 110C96.199 101.018 70.853 94.6737 53 100C50.3724 92.4525 43.1277 90.894 36 93L40 103C34.4008 102.515 25.265 105.215 22 110C18.7075 109.931 17.946 110.859 17 114C24.8153 113.563 34.9453 109.935 41 105C41.7415 107.265 42.1571 108.547 44 110L43 115C50.6303 115.64 53.1295 108.427 54 102C73.3938 102 92.1526 105.051 110 113C104.151 116.425 105.485 123.85 105 130L110 129C109.837 125.807 110.194 123.092 111 120C112.683 123.277 112.63 125.397 112 129L116 129C114.814 130.186 114.416 130.528 113 131C114.528 138.404 117.144 145.038 120 152L109 150C109.34 157.937 109.051 164.247 107 172C109.121 171.754 110.874 171.769 113 172C112.445 167.609 111.163 163.029 113.894 159.063C115.341 156.961 117.988 154.952 120.143 157.377C123.348 160.982 121.089 167.697 121 172L126 172C125.13 167.783 123.295 163.171 125.321 159.016C126.513 156.573 132.47 151.395 133.133 157.124C133.664 161.716 127.778 167.08 127 172L135 171C133.795 177.087 134.001 183.784 134 190C137.6 188.16 139.273 185.617 141 182C143.605 184.269 146.265 186.461 149 188.575C152.092 190.964 155.497 193.537 159.266 194.771C160.885 195.301 164.209 195.109 162.839 192.489C159.689 186.466 147.684 185.284 145.661 178.336C145.115 176.459 146.501 173.788 147 172C142.42 176.491 139.157 182.126 135 187C135.548 180.769 138.586 177.018 142 172L137 174L136 173C137.15 170.711 138.361 168.981 140 167C142.37 173.176 147.619 170.627 153 171L153 166C156.368 166.802 159.545 166.99 163 167C159.893 169.725 157.839 168.974 154 168L154 172C157.44 171.775 160.173 172.141 163 170C165.604 171.824 169.588 173.051 172.562 170.973C175.626 168.832 174.084 165.556 170.985 164.859C169.791 164.59 168.181 164.915 167 165L167 162C169.876 162.152 174.357 161.297 176.956 162.559C184.344 166.146 179.662 173.96 176 178C176 176.203 175.986 176.479 175 175C172.913 178.06 175.085 180.778 178.704 178.802C185.383 175.155 192.111 161.933 182 159C184.601 163.131 186.093 164.514 183 169C181.324 159.756 175.901 160.057 168 159.806C163.402 159.661 158.809 159.1 155 162C149.325 158.085 142.792 159.859 140 166C136.053 166.579 132.99 169.198 129 170C131.754 167.095 134.778 164.089 135.59 160C137.191 151.941 129.863 150.196 124 153C121.732 145.126 116.897 138.465 116.664 130C116.518 124.656 117.216 120.936 123 120L118 129C122.162 129.409 124.928 128.77 127 125C130.483 128.65 134.193 129.094 139 130C139.225 127.501 140.38 125.427 141 123L138 124C137.4 118.744 133.874 115.552 129 119C125.385 115.757 120.788 114.104 117 111C130.145 105.327 141.292 93.0883 148.6 81C152.341 74.8105 154.843 63.7374 161 60L161 58L158 57C159.543 51.8293 159.556 46.2942 160.665 41C161.296 37.9858 162.988 34.3416 162.513 31.2284C162.188 29.0975 160.741 28.702 159 28L158 32C147.717 29.2023 137.904 39.7728 140.614 50C142.348 56.5452 146.918 59.2191 153 61C148.511 71.0767 144.683 81.3807 137.535 89.9961C131.422 97.3653 123.229 102.834 116 109C116 93.0863 110.879 76.4941 102.305 63C99.6856 58.8781 97.1449 53.6586 93 51C95.6365 46.2933 96.5436 42.2339 95 37L93 37C85.7633 45.8815 80.4272 33.2169 72 32C71.5046 30.4481 67.2378 25.6799 67.2022 30.0625C67.1835 32.3574 70.4954 34.0878 72.0008 35.3796C76.6038 39.3298 81.3497 43.1035 86 47z"/>
<path style="fill:#493d67; stroke:none;" d="M68 29L68 31L70 31C69.455 29.3649 69.6352 29.5451 68 29M160 30L161 31L160 30M158 59C156.346 57.0846 154.497 55.2372 153.299 52.9838C149.223 45.3147 154.876 39.0622 159 33C153.588 33.0484 149.075 33.919 145.225 38.1049C140.119 43.6552 141.059 53.7671 148.055 57.5432C151.103 59.1885 154.651 58.9904 158 59M158 36C154.446 41.3945 152.479 45.5352 154 52C156.067 47.7071 158.19 40.7357 158 36M93 40C89.4241 44.0932 85.2988 48.0635 83 53C89.3987 52.1446 95.8333 46.9654 93 40M87 44L86 46C87.2627 45.0287 87.3919 45.3063 87 44M91 51L92 52L91 51M93 53C93.5451 54.6352 93.3648 54.4549 95 55C94.4549 53.3648 94.6352 53.5451 93 53M97 59C98.1634 61.4819 99.4902 63.7092 101 66C100.899 62.8994 99.2387 61.0729 97 59M154 61L149 76C152.644 71.7628 154.541 66.3451 156 61L154 61z"/>
<path style="fill:#e5e1eb; stroke:none;" d="M48 86L47 81C43.8871 81.9572 40.3573 84.2332 37.0046 83.6273C29.1905 82.2151 29.2601 72.5117 35.0941 68.7577C38.7717 66.3914 42.395 68.7227 46 70C35.9998 54.4529 17.2668 79.7684 34.0432 85.3472C38.3752 86.7878 43.5024 85.7334 48 86M87 67C88.0518 74.1538 88.3104 79.7716 88 87L92 87C90.7208 80.1096 92.7739 71.8873 87 67z"/>
<path style="fill:#493d67; stroke:none;" d="M102 67L103 68L102 67M104 72L105 73L104 72z"/>
<path style="fill:#e5e1eb; stroke:none;" d="M64 75L64 87L68 86L68 82C70.9379 83.5211 72.8145 85.9944 76 87C75.5721 84.1221 75.8473 75.841 72.6813 74.7315C70.243 73.8769 66.671 75.3107 64 75z"/>
<path style="fill:#493d67; stroke:none;" d="M106 74L107 79C107.473 76.8571 107.133 75.8987 106 74z"/>
<path style="fill:#e5e1eb; stroke:none;" d="M61 86L63 81C61.1758 79.2782 59.3278 76.4643 56.875 75.6435C52.1653 74.0675 48.426 79.6743 51.0316 83.6821C53.0247 86.7477 57.8735 85.9976 61 86M87 86L87 81C86.1094 81.6757 84.7887 83.0009 83.6883 83.3866C78.6561 85.1503 79.0788 77.1451 84 79C84.9615 74.9684 79.8168 74.8791 77.6073 77.4375C71.6002 84.3931 82.2737 86.8609 87 86z"/>
<path style="fill:#493d67; stroke:none;" d="M53 80C54.8751 79.4529 56.2553 78.89 58 78C55.4913 77.4339 54.7802 78.1524 53 80M68 81C70.2489 79.8465 70.8465 79.2489 72 77C69.7511 78.1535 69.1535 78.7511 68 81M148 77L146 81C147.466 79.5053 147.961 79.0379 148 77M96 79C97.9433 79.6218 98.949 79.4358 101 79C98.9557 78.2256 98.1554 78.4078 96 79M108 80L109 81L108 80M53 81L54 85C56.7407 84.0688 58.104 83.1814 60 81L53 81M95 82C97.8711 84.7232 99.9767 84.4186 102 81C99.5805 81.166 97.356 81.437 95 82M145 82L146 83L145 82M109.333 83.6667C109.278 83.7222 109.222 84.7778 109.667 84.3333C109.722 84.2777 109.778 83.2223 109.333 83.6667M143 85C141.814 86.1863 141.472 86.5838 141 88C142.548 86.7383 142.808 86.8061 143 85M110 86L111 87L110 86M110 88L111 91C111.685 89.7516 111.749 89.4516 112 88L110 88M140 89L141 90L140 89M40 93C38.8673 98.4383 41.3138 107.137 47 109L45 114C50.7491 111.128 54.4304 102.718 49.5664 97.2284C47.1084 94.4541 43.4037 93.8926 40 93M112 94L113 95L112 94M133 96L134 97L133 96M131 98C129.814 99.1863 129.472 99.5838 129 101C130.548 99.7383 130.808 99.8061 131 98M58 100C62.4714 101.876 68.1833 101 73 101C68.5286 99.1237 62.8166 100 58 100M74 101C77.6028 102.526 82.0826 102.691 86 103C82.2785 100.771 78.2405 101.003 74 101M87 103C89.0132 104.225 90.6585 104.645 93 105C90.9868 103.775 89.3414 103.355 87 103M94 105C95.7505 106.255 96.8574 106.614 99 107C97.3068 105.938 95.9596 105.48 94 105M100 107L101 108L100 107z"/>
<path style="fill:#e5e1eb; stroke:none;" d="M173 124C176.924 126.789 180.121 131.278 185.003 132.427C190.029 133.61 192.477 130.748 190.905 126.021C190.343 124.33 189.604 122.678 189 121C194.837 120.403 200.811 117.633 205.941 114.817C207.251 114.098 210.806 111.801 208.353 110.117C206.357 108.748 203.594 111.022 201.83 111.806C196.94 113.981 191.896 115.786 187 118L184 107C178.829 108.089 175.55 111.848 174.333 117C173.686 119.741 174.68 121.76 173 124M35 109L36 110L35 109M38 109C38.5621 112.025 38.9364 114.922 39 118C36.1665 117.172 32.9411 116.422 30.4336 118.603C27.4961 121.159 27.5737 126.869 32.0571 127.553C34.3395 127.902 36.8703 126.663 39 126C37.7233 127.915 37.7233 127.085 39 129L42 128C40.8725 121.923 43.9817 112.388 38 109z"/>
<path style="fill:#493d67; stroke:none;" d="M22.3333 110.667C22.2778 110.722 22.2222 111.778 22.6667 111.333C22.7222 111.278 22.7778 110.222 22.3333 110.667M191 131L183 110C175.131 113.76 174.071 122.854 181.105 128.427C184.088 130.791 187.366 130.959 191 131M19.6667 111.333C19.2222 111.778 20.2778 111.722 20.3333 111.667C20.7778 111.222 19.7222 111.278 19.6667 111.333M110 111L111 113C112.635 112.455 112.455 112.635 113 111L110 111z"/>
<path style="fill:#e5e1eb; stroke:none;" d="M157 111L157 119C154.722 118.478 152.395 117.832 150.107 118.757C146.64 120.159 144.666 125.491 147.604 128.393C150.054 130.812 154.096 128.89 157 130C158.729 129.073 159.594 128.392 161 127C163.694 130.736 167.721 130 172 130L174 125L171 126C169.924 116.457 160.494 118.012 160 127C158.466 121.762 159.926 117.207 161 112L157 111z"/>
<path style="fill:#493d67; stroke:none;" d="M205 111C206.223 112.195 206.42 112.316 208 113C207.02 111.217 207.092 111.406 205 111M115 112L116 113L115 112z"/>
<path style="fill:#e5e1eb; stroke:none;" d="M99 114L101 118L99 117C99.7493 121.036 99.9973 124.899 100 129L103 129L103 113L99 114z"/>
<path style="fill:#493d67; stroke:none;" d="M112 114C110.964 115.186 110.661 115.604 110 117L108 116L107 117C110.55 117.437 113.625 117.738 117 119L118 118L118 116C116.06 115.308 115.533 114.843 114 116C112.977 114.466 113.195 114.598 112 114M119 115C119.98 116.783 119.908 116.594 122 117C120.861 115.985 120.388 115.691 119 115z"/>
<path style="fill:#e5e1eb; stroke:none;" d="M60 125C60.9857 126.479 61 126.203 61 128C63.5453 128.048 67.3832 129.302 69.6782 127.922C72.1378 126.443 71.9557 122.712 69.5671 121.269C67.6793 120.128 65.0448 120.79 63 121C66.0003 118.035 68.1842 118.652 72 120L72 116C69.3559 116.141 65.6379 115.508 63.3225 117.027C56.6722 121.391 67.4127 122.304 70 122C68.2031 126.544 64.7532 125.469 61.0278 123.083C57.4037 120.762 53.6993 112.426 48.5 118.306C42.5133 125.076 54.9778 132.631 60 125M88 119C86.4056 117.703 85.9817 117.465 84 117L84 129L88 129L87 125C90.3936 125.134 91.4593 125.986 93 129C88.0383 129.782 85.7268 133.024 82.9128 137C77.557 144.568 72.3875 153.737 71 163L65 164L65 166L68 167C65.408 171.857 65.8329 177.616 64.8032 183C64.2917 185.675 63.173 189.137 63.865 191.851C64.3504 193.755 65.447 194.122 67 195L68 194C68 192.203 67.9857 192.479 67 191C71.0622 190.966 75.4161 190.926 78.787 188.297C88.5174 180.71 85.278 166.359 74 163C76.8175 156.463 79.266 150.109 83.0656 144C86.2484 138.883 90.6438 134.566 93 129C94.8006 129.562 96.1219 129.824 98 130C97.0651 128.197 95.7907 126.293 95.365 124.281C94.9533 122.336 95.9361 120.115 94.8719 118.307C92.9603 115.06 89.5811 116.774 88 119M82 125C74.0088 127.526 73.7155 119.071 82 120C78.2029 114.148 70.8846 119.698 73.6073 125.606C75.4625 129.631 82.0872 129.944 82 125z"/>
<path style="fill:#493d67; stroke:none;" d="M123 117C124.398 120.753 123.969 123.18 123 127C126.203 124.819 126.985 122.673 128 119L123 117M36 126C37.1828 123.672 38.2229 121.489 39 119C37.142 118.756 35.0547 118.241 33.314 119.268C28.814 121.922 32.8873 125.321 36 126M50 122C53.0662 121.503 54.0317 120.964 55 118C52.3626 118.939 51.3818 119.58 50 122M88 122C90.2974 121.326 90.7741 121.035 92 119C89.791 119.684 89.2966 120.08 88 122M130 123C132.996 122.775 134.249 122.448 136 120C132.87 119.918 132.029 120.586 130 123M151.239 121.086C147.382 123.152 149.699 129.072 153.863 126.914C157.948 124.796 155.403 118.856 151.239 121.086M163 124C165.993 123.936 167.346 124.054 168 121C165.566 121.651 164.717 122.16 163 124M50 124C52.346 127.205 54.3549 126.692 57 124L50 124M130 124C132.39 127.274 134.554 126.633 138 125C135.387 123.902 132.836 124.007 130 124M163 126L163 128C165.784 127.942 168.291 127.648 171 127C168.387 125.902 165.835 126.007 163 126M89 131L90 132L89 131M81 142L82 143L81 142M121 152C121.691 153.388 121.985 153.861 123 155C123.048 152.67 123.203 152.994 121 152M73 158L72 163C73.3182 161.074 73.6514 160.234 73 158M164 161C161.573 162.043 159.649 162.041 157 162L157 166C162.432 165.071 168.617 172.226 172 167C167.411 166.651 165.839 165.087 164 161M142 169C147.372 169.4 149.594 167.336 150 162C144.823 162.172 142.938 163.883 142 169M153 162L154 163L153 162M68 164C69.5429 166.748 72.1777 168.998 73.2438 172.004C75.4412 178.2 70.4709 184.706 68 190C79.6539 189.039 90.1583 173.128 76.9066 165.573C74.1348 163.992 71.0874 164.028 68 164M69 168L70 169L69 168M164 169L165 170L164 169M71 172C70.4235 176.464 69.3617 180.713 68 185C71.3674 181.515 72.9163 176.61 71 172M142 180L143 181L142 180M158.333 191.667C158.278 191.722 158.222 192.778 158.667 192.333C158.722 192.278 158.778 191.222 158.333 191.667M160.667 193.333C160.222 193.778 161.278 193.722 161.333 193.667C161.778 193.222 160.722 193.278 160.667 193.333z"/>
</svg>
