<?xml version="1.0" standalone="yes"?>
<svg xmlns="http://www.w3.org/2000/svg" width="134" height="50">
<path style="fill:#faffff; stroke:none;" d="M0 0L0 50L134 50L134 0L0 0z"/>
<path style="fill:#0893bb; stroke:none;" d="M25 10L25 49L111 49L111 2C82.2533 2.01903 53.7441 9.9207 25 10z"/>
<path style="fill:#faffff; stroke:none;" d="M62 15C58.1054 20.2633 56.2205 28.5749 55 35C58.268 32.7758 59.9876 28.7513 63 26C62.5217 28.8424 65.1242 34.4917 67.358 29.5633C68.2399 27.6177 67.3599 24.9707 67 23C63.6673 23.6606 61.6518 24.8738 59 27C59.5303 23.46 60.7168 20.3315 62 17C63.1863 18.1863 63.5838 18.5279 65 19C64.0643 17.0514 63.6076 16.4498 62 15M35 23L43 23C39.9018 24.6438 31.1798 28.1622 31.9213 32.6968C32.2331 34.6033 34.5118 34.7604 36.0193 34.7863C39.9788 34.8543 46.4681 35.9248 49.7724 33.3966C53.7114 30.3827 54.7636 23.616 55 19C52.7976 21.3087 51.8888 24.3607 49.6975 26.6713C45.5192 31.0773 38.9039 33.4813 33 34C35.6591 28.4319 41.0378 26.2731 46 23C43.4401 21.0582 41.1922 21.035 38 21C40.618 19.1517 42.9268 17.9035 46 17C41.2588 15.6167 37.0935 18.915 35 23M68 19C70.2515 20.0885 72.5348 20.5187 75 21L70 33L77 28L78 32C80.4957 31.6984 81.9832 31.4509 84 30C90.7525 33.7996 97.3453 34.9992 105 35C101.016 33.3244 96.2354 33.3426 92 32C94.9285 29.956 96.6458 28.3206 98 25C93.0682 23.9041 90.9658 26.2697 90 31C87.3134 29.6759 86.3241 28.6866 85 26L78 30L79 25C77.3386 25.6128 76.5166 26.0427 75 27C76.3175 21.1974 74.3095 17.7029 68 19z"/>
<path style="fill:#0893bb; stroke:none;" d="M63 25L64 26L63 25M92 30C94.5473 28.6274 95.1875 27.7817 96 25C93.1595 26.127 92.5083 26.9867 92 30M65 27L64 31C65.4336 29.6075 66.0449 28.7672 67 27L65 27M74 27L73 29C74.2627 28.0287 74.3919 28.3063 74 27M50 28C47.4216 29.9678 44.9299 31.6123 42 33C45.9789 34.62 51.3782 33.0891 50 28M82 29L81 31C82.2627 30.0287 82.3919 30.3062 82 29z"/>
<path style="fill:#faffff; stroke:none;" d="M79 37C77.663 39.4787 77.1837 41.1899 77 44C79.54 42.4628 80.4236 39.7408 79 37M87 37C86.428 39.3772 86.1095 41.558 86 44C87.2699 43.0275 88.0275 42.2699 89 41L87 41L89 40C88.3087 38.6116 88.0155 38.1394 87 37M35 39L35 44C35.8299 41.9695 35.8299 41.0305 35 39M38 39L38 44C39.2699 43.0275 40.0275 42.2699 41 41L39 41L41 40C39.7517 39.3152 39.4516 39.2512 38 39M44 39L44 44L46 40L47 41C46.0198 39.2167 46.0924 39.4057 44 39M49 39C48.4382 40.8006 48.1759 42.1218 48 44C48.683 42.4939 48.8259 41.6852 49 40L50 44C50.7789 42.231 50.9124 40.9641 51 39L49 39M53 39L53 44L56 44L56 39C54.3874 39.9816 54.5069 40.1104 53 39M57 40L59 44L57 43C58.7238 44.0555 58.9207 44.0358 61 44L60 39C58.2032 39 58.4785 39.0143 57 40M62 39L62 44C63.1511 42.3265 63.5851 40.9997 64 39L62 39M65 39L65 44C65.8299 41.9695 65.8299 41.0305 65 39M68 39L68 44C68.8299 41.9695 68.8299 41.0305 68 39M74 39C73.4382 40.8006 73.1759 42.1218 73 44L75 40L76 41L76 39L74 39M81 39L81 44C81.6848 42.7517 81.7488 42.4516 82 41C83.1113 42.7425 83.2705 43.1193 85 44L85 39C83.8046 39.5977 84.0226 39.4661 83 41C82.2321 39.6859 82.3141 39.7679 81 39M90 39L90 44C91.6501 42.7624 91.3334 41.3335 92 44C92.7789 42.231 92.9124 40.9641 93 39L90 39M95 39L94 44L98 44C97.352 41.6064 96.9676 40.4638 95 39M99 39L99 44C99.8299 41.9695 99.8299 41.0305 99 39z"/>
<path style="fill:#0893bb; stroke:none;" d="M58 40L59 41L58 40M91 40L92 41L91 40z"/>
<path style="fill:#faffff; stroke:none;" d="M46.3333 42.6667C46.2778 42.7222 46.2222 43.7778 46.6667 43.3333C46.7222 43.2778 46.7778 42.2222 46.3333 42.6667M75.3333 42.6667C75.2778 42.7222 75.2222 43.7778 75.6667 43.3333C75.7222 43.2778 75.7778 42.2222 75.3333 42.6667z"/>
</svg>
